<svg width="552" height="422" viewBox="0 0 552 422" fill="none" xmlns="http://www.w3.org/2000/svg">
<path d="M530.748 15.7935C535.921 15.7935 540.882 17.8485 544.54 21.5065C548.198 25.1644 550.253 30.1256 550.253 35.2988V220.291C550.253 225.464 548.198 230.425 544.54 234.083C540.882 237.741 535.921 239.796 530.748 239.796H290.737C285.564 239.796 280.603 237.741 276.945 234.083C273.287 230.425 271.232 225.464 271.232 220.291V35.2988C271.232 30.1256 273.287 25.1644 276.945 21.5065C280.603 17.8485 285.564 15.7935 290.737 15.7935H530.748ZM530.748 14.0469H290.737C285.103 14.0527 279.701 16.2935 275.716 20.2778C271.732 24.262 269.491 29.6642 269.485 35.2988V220.291C269.491 225.926 271.732 231.328 275.716 235.312C279.701 239.296 285.103 241.537 290.737 241.543H530.748C536.383 241.537 541.785 239.296 545.769 235.312C549.753 231.328 551.994 225.926 552 220.291V35.2988C551.994 29.6642 549.753 24.262 545.769 20.2778C541.785 16.2935 536.383 14.0527 530.748 14.0469Z" fill="white"/>
<path d="M530.748 15.7939H290.737C279.965 15.7939 271.232 24.5268 271.232 35.2992V220.292C271.232 231.064 279.965 239.797 290.737 239.797H530.748C541.521 239.797 550.253 231.064 550.253 220.292V35.2992C550.253 24.5268 541.521 15.7939 530.748 15.7939Z" fill="#F5EBDD"/>
<path d="M271.232 57.7124H551.127" stroke="white" stroke-width="4" stroke-miterlimit="10"/>
<path d="M291.755 43.7393C295.855 43.7393 299.178 40.4158 299.178 36.3162C299.178 32.2165 295.855 28.8931 291.755 28.8931C287.655 28.8931 284.332 32.2165 284.332 36.3162C284.332 40.4158 287.655 43.7393 291.755 43.7393Z" fill="white"/>
<path d="M314.252 43.7393C318.351 43.7393 321.675 40.4158 321.675 36.3162C321.675 32.2165 318.351 28.8931 314.252 28.8931C310.152 28.8931 306.828 32.2165 306.828 36.3162C306.828 40.4158 310.152 43.7393 314.252 43.7393Z" fill="white"/>
<path d="M336.743 43.7393C340.843 43.7393 344.166 40.4158 344.166 36.3162C344.166 32.2165 340.843 28.8931 336.743 28.8931C332.644 28.8931 329.32 32.2165 329.32 36.3162C329.32 40.4158 332.644 43.7393 336.743 43.7393Z" fill="white"/>
<path d="M284.913 147.663C290.086 147.663 295.047 149.718 298.705 153.376C302.363 157.034 304.418 161.995 304.418 167.168V352.16C304.418 357.333 302.363 362.295 298.705 365.953C295.047 369.611 290.086 371.666 284.913 371.666H44.902C39.7289 371.666 34.7677 369.611 31.1097 365.953C27.4518 362.295 25.3968 357.333 25.3968 352.16V167.168C25.3968 161.995 27.4518 157.034 31.1097 153.376C34.7677 149.718 39.7289 147.663 44.902 147.663H284.913ZM284.913 145.916H44.902C39.2675 145.922 33.8653 148.163 29.8811 152.147C25.8968 156.131 23.6559 161.533 23.6501 167.168V352.16C23.6559 357.795 25.8968 363.197 29.8811 367.181C33.8653 371.165 39.2675 373.406 44.902 373.412H284.913C290.547 373.406 295.949 371.165 299.934 367.181C303.918 363.197 306.159 357.795 306.165 352.16V167.168C306.159 161.533 303.918 156.131 299.934 152.147C295.949 148.163 290.547 145.922 284.913 145.916Z" fill="white"/>
<path d="M284.913 147.663H44.9021C34.1297 147.663 25.3969 156.395 25.3969 167.168V352.16C25.3969 362.933 34.1297 371.666 44.9021 371.666H284.913C295.685 371.666 304.418 362.933 304.418 352.16V167.168C304.418 156.395 295.685 147.663 284.913 147.663Z" fill="#F5EBDD"/>
<path d="M25.3969 189.582H305.291" stroke="white" stroke-width="4" stroke-miterlimit="10"/>
<path d="M45.9192 175.609C50.0189 175.609 53.3423 172.285 53.3423 168.186C53.3423 164.086 50.0189 160.763 45.9192 160.763C41.8195 160.763 38.4961 164.086 38.4961 168.186C38.4961 172.285 41.8195 175.609 45.9192 175.609Z" fill="white"/>
<path d="M68.416 175.609C72.5157 175.609 75.8391 172.285 75.8391 168.186C75.8391 164.086 72.5157 160.763 68.416 160.763C64.3164 160.763 60.9929 164.086 60.9929 168.186C60.9929 172.285 64.3164 175.609 68.416 175.609Z" fill="white"/>
<path d="M90.908 175.609C95.0076 175.609 98.3311 172.285 98.3311 168.186C98.3311 164.086 95.0076 160.763 90.908 160.763C86.8083 160.763 83.4849 164.086 83.4849 168.186C83.4849 172.285 86.8083 175.609 90.908 175.609Z" fill="white"/>
<path d="M231.248 161.025C231.248 160.846 231.248 160.588 231.248 160.322L231.458 160.164L231.252 160.121C231.252 156.366 230.934 145.213 227.288 136.716C224.048 129.166 219.576 125.678 216.472 127.009C213.367 128.341 212.812 133.996 216.035 141.532C217.834 145.733 220.668 149.79 223.397 153.134C217.899 147.925 210.393 141.467 203.617 137.913C194.447 133.109 187.316 133.254 185.338 137.018C183.36 140.781 187.303 146.742 196.464 151.549C202.425 154.68 210.564 156.999 217.48 158.575C213.772 158.448 210.062 158.761 206.429 159.51C198.412 161.309 194.167 165.068 194.905 168.36C195.643 171.653 201.088 173.238 209.105 171.439C218.035 169.435 227.161 163.273 230.3 161.007L230.855 161.09C231.082 161.304 231.217 161.422 231.217 161.422C231.217 161.422 231.217 161.322 231.217 161.143H231.348L231.248 161.025Z" fill="#3EC1F3"/>
<path d="M319.408 200.73L319.273 200.599V200.869L319.408 200.73Z" fill="#3EC1F3"/>
<path d="M308.941 211.305L308.832 190.263L298.09 179.63L298.304 222.047L308.941 211.305Z" fill="#3EC1F3"/>
<path d="M234.737 153.4L235.095 224.177L245.836 234.81L245.369 142.659L234.737 153.4Z" fill="#3EC1F3"/>
<path d="M199.529 188.97L224.654 213.842L224.401 163.841L199.529 188.97Z" fill="#3EC1F3"/>
<path d="M287.974 232.483L287.655 169.299L276.909 158.662L277.337 243.229L287.974 232.483Z" fill="#3EC1F3"/>
<path d="M266.472 148.331L255.731 137.698L256.272 245.145L265.953 254.726L267.005 253.665L266.472 148.331Z" fill="#3EC1F3"/>
<path d="M224.401 163.841L224.655 213.842L235.095 224.177L234.737 153.4L224.401 163.841Z" fill="#4756DF"/>
<path d="M252.98 134.974L245.37 142.659L245.837 234.81L256.273 245.146L255.731 137.698L252.98 134.974Z" fill="#4756DF"/>
<path d="M277.336 243.229L276.908 158.662L266.472 148.331L267.005 253.665L277.336 243.229Z" fill="#4756DF"/>
<path d="M298.305 222.046L298.091 179.63L287.655 169.299L287.974 232.483L298.305 222.046Z" fill="#4756DF"/>
<path d="M319.273 200.869V200.598L308.833 190.263L308.942 211.305L319.273 200.869Z" fill="#4756DF"/>
<path d="M269.551 151.601L216.197 205.497" stroke="black" stroke-width="4" stroke-linejoin="round"/>
<path d="M255.744 132.182L196.76 191.766L212.782 207.627L271.766 148.042L255.744 132.182Z" fill="#4756DF"/>
<path d="M239.793 228.443C239.793 228.443 245.47 209.667 241.977 206.611C237.759 202.921 230.624 214.907 224.873 229.317C218.825 244.455 201.294 287.391 200.42 290.448C200.42 290.448 170.549 274.117 157.192 268.179C145.402 262.939 131.041 261.035 131.041 261.035L129.215 250.071C129.215 250.071 137.743 253.127 145.053 248.852C152.362 244.578 154.192 236.666 151.755 224.483C150.31 217.265 150.363 208.327 149.136 200.358C144.271 201.179 137.145 199.506 137.145 199.506C127.395 210.471 117.059 212.907 117.059 212.907C110.356 205.598 98.1695 205.598 96.3442 215.964C94.3225 227.426 108.527 230.583 108.527 230.583C108.527 230.583 111.418 247.219 105.304 263.812C96.8115 286.867 62.5735 292.985 48.5395 283.025C23.2136 300.928 45.6183 355.322 66.8789 380.835C84.345 401.795 146.35 390.878 146.35 390.878C146.35 390.878 153.336 396.118 161.633 397.865C176.479 427.12 182.592 418.824 182.592 418.824C182.592 418.824 187.832 424.5 191.762 418.387C199.621 418.824 199.185 414.021 192.198 397.428C200.058 407.034 207.752 407.065 207.918 404.414C208.354 397.428 185.212 372.975 170.802 366.862C159.978 362.269 154.646 360.749 154.646 360.749L152.463 325.38C152.463 325.38 198.8 350.828 220.581 338.917C248.526 323.634 259.879 248.529 259.879 248.529L239.793 228.443Z" fill="#EAA58B"/>
<path d="M105.304 263.813C111.417 247.22 108.5 230.575 108.5 230.575C108.5 230.575 94.2961 227.418 96.3178 215.955C98.1431 205.598 110.33 205.598 117.033 212.899C117.033 212.899 127.386 210.462 137.119 199.498C137.119 199.498 144.245 201.17 149.109 200.349C148.258 194.861 146.799 189.817 143.817 186.093C136.507 176.958 116.404 170.862 100.566 182.438C84.7291 194.014 85.943 212.899 86.5543 220.208C86.5543 220.208 59.1631 213.501 44.5919 234.111C26.6892 259.437 48.5218 283.017 48.5218 283.017C62.5733 292.985 96.8113 286.868 105.304 263.813Z" fill="#30242A"/>
<path d="M153.227 337.769L152.462 325.381H152.502L148.847 265.053C144.815 263.807 140.719 262.776 136.577 261.966L134.56 303.548H100.501L87.5627 282.523C82.9447 284.802 77.9989 286.345 72.9043 287.095L92.3615 335.319L99.6275 353.327C99.6275 353.327 116.22 354.2 131.066 356.383C145.913 358.567 154.646 360.75 154.646 360.75L153.227 337.769Z" fill="#FF7235"/>
<path d="M240.444 229.527C240.086 230.667 239.719 231.776 239.356 232.81C239.356 232.81 250.491 245.692 243.505 262.285" stroke="#BB7259" stroke-width="4" stroke-miterlimit="10" stroke-linecap="round"/>
<path d="M199.398 290.06L194.818 301.802" stroke="#BB7259" stroke-width="4" stroke-miterlimit="10" stroke-linecap="round"/>
<path d="M193.945 399.463C192.098 395.276 189.814 390.376 187.797 386.8" stroke="#BB7259" stroke-width="4" stroke-miterlimit="10" stroke-linecap="round"/>
<path d="M179.601 391.154C184.841 400.38 188.95 410.712 191.526 417.969" stroke="#BB7259" stroke-width="4" stroke-miterlimit="10" stroke-linecap="round"/>
<path d="M171.453 396.324C175.383 403.537 179.208 411.943 182.046 418.549" stroke="#BB7259" stroke-width="4" stroke-miterlimit="10" stroke-linecap="round"/>
<path d="M153.991 343.065L95.916 342.628" stroke="#724342" stroke-width="4" stroke-miterlimit="10" stroke-linecap="round"/>
<path d="M78.3104 370.64C75.4765 369.678 72.4414 369.468 69.5022 370.032C66.5629 370.595 63.8204 371.912 61.543 373.853C63.3114 376.356 65.0973 378.7 66.8789 380.84C71.7082 386.634 79.9392 390.01 89.3228 391.813C91.7026 382.914 86.9649 373.618 78.3104 370.64Z" fill="#CA7358"/>
<path d="M220.581 338.917C224.375 336.843 227.86 333.677 231.06 329.721C228.989 326.606 225.949 324.26 222.41 323.045C213.35 319.932 203.424 324.909 200.241 334.162C199.412 336.575 199.104 339.136 199.337 341.677C207.263 342.611 214.791 342.083 220.581 338.917Z" fill="#CA7358"/>
<path d="M72.9003 287.095C63.4948 288.497 54.3076 287.121 48.5394 283.025C30.1345 296.038 36.9376 328.315 50.19 354.781L92.3619 335.319L72.9003 287.095Z" fill="#FFBE21"/>
<path d="M105.304 263.813C102.152 272.367 95.4534 278.589 87.5631 282.523L100.501 303.548H134.56L136.577 261.988C133.224 261.328 131.041 261.036 131.041 261.036L130.194 255.953H107.584C107.005 258.622 106.244 261.248 105.304 263.813Z" fill="#FFBE21"/>
<path d="M157.187 268.179C154.467 266.988 151.683 265.952 148.847 265.074L152.502 325.402C158.302 328.473 164.265 331.227 170.365 333.651L188.268 283.898C178.452 278.658 164.999 271.672 157.187 268.179Z" fill="#FFBE21"/>
<path d="M42.4153 305.318C54.1108 298.566 58.8374 284.857 52.9725 274.699C47.1075 264.54 32.872 261.779 21.1765 268.532C9.48106 275.284 4.75447 288.993 10.6194 299.151C16.4843 309.31 30.7199 312.071 42.4153 305.318Z" fill="#30242A"/>
<path d="M37.8412 263.158C37.8412 263.158 40.8978 281.497 55.744 287.174" stroke="black" stroke-width="4" stroke-linecap="round" stroke-linejoin="round"/>
<path d="M367.951 155.304L369.698 168.404" stroke="#F5EBDC" stroke-width="4" stroke-miterlimit="10" stroke-linecap="round"/>
<path d="M513.138 139.803C513.138 139.803 532.787 116.661 510.955 97.0113C497.611 85.0033 481.581 88.3481 481.581 88.3481C482.188 81.0385 483.406 62.1489 467.569 50.5776C451.731 39.0063 431.624 45.0976 424.314 54.2324C417.004 63.3672 418.834 80.4316 416.397 92.6142C413.961 104.797 415.786 112.7 423.096 116.984C430.405 121.267 438.938 118.202 438.938 118.202L437.108 129.166C437.108 129.166 422.751 131.07 410.961 136.31C397.6 142.249 367.733 158.579 367.733 158.579C366.859 155.523 362.056 105.744 359.873 89.5882C358.209 77.279 352.45 62.0791 348.083 65.1356C343.848 68.1005 345.463 77.7986 345.463 77.7986L323.194 100.941C323.194 100.941 312.186 180.294 338.477 201.808C357.69 217.527 407.905 192.202 407.905 192.202L401.355 239.797H461.272C461.272 239.797 450.037 242.783 426.681 253.333C399.608 265.559 383.889 299.618 385.635 302.238C387.382 304.858 392.622 302.675 399.608 293.942C393.495 316.648 399.608 314.901 403.538 314.464C407.533 320.211 412.708 313.154 412.708 313.154C412.708 313.154 419.694 319.704 430.611 289.139C435.57 286.8 440.136 283.707 444.147 279.969C444.147 279.969 513.575 275.602 527.111 251.15C540.647 226.697 531.477 162.946 513.138 139.803Z" fill="#A15842"/>
<path d="M422.38 87.0993C423.38 87.0993 424.192 86.288 424.192 85.2872C424.192 84.2864 423.38 83.4751 422.38 83.4751C421.379 83.4751 420.567 84.2864 420.567 85.2872C420.567 86.288 421.379 87.0993 422.38 87.0993Z" fill="#30242A"/>
<path d="M99.4092 352.672L89.3662 352.235" stroke="#BB7259" stroke-width="4" stroke-miterlimit="10" stroke-linecap="round"/>
<path d="M129.062 251.093C126.424 250.187 123.864 249.067 121.408 247.744" stroke="#BB7259" stroke-width="4" stroke-miterlimit="10" stroke-linecap="round"/>
<path d="M85.8905 220.091C86.2224 223.422 86.6721 227.571 87.1088 230.846" stroke="black" stroke-width="4" stroke-linecap="round" stroke-linejoin="round"/>
<path d="M126.901 342.594C126.901 342.594 116.784 328.276 121.482 326.394C125.277 324.874 126.36 336.013 126.901 342.594Z" stroke="#724342" stroke-width="4" stroke-linecap="round" stroke-linejoin="round"/>
<path d="M127.22 342.846C127.22 342.846 132.193 331.362 135.315 333.201C137.835 334.685 131.189 339.847 127.22 342.846Z" stroke="#724342" stroke-width="4" stroke-linecap="round" stroke-linejoin="round"/>
<path d="M132.036 261.341L132.813 265.996" stroke="#BB7259" stroke-width="4" stroke-miterlimit="10" stroke-linecap="round"/>
<path d="M110.3 220.78L104.863 217.759" stroke="#BB7259" stroke-width="4" stroke-miterlimit="10" stroke-linecap="round"/>
<path d="M136.25 230.998C136.56 236.727 142.446 237.203 143.887 233.181L136.25 230.998Z" stroke="#BB7259" stroke-width="4" stroke-linecap="round" stroke-linejoin="round"/>
<path d="M132.735 220.933C133.736 220.933 134.547 220.122 134.547 219.121C134.547 218.12 133.736 217.309 132.735 217.309C131.734 217.309 130.923 218.12 130.923 219.121C130.923 220.122 131.734 220.933 132.735 220.933Z" fill="#724342"/>
<path d="M146.21 217.658C147.211 217.658 148.022 216.847 148.022 215.846C148.022 214.845 147.211 214.034 146.21 214.034C145.209 214.034 144.398 214.845 144.398 215.846C144.398 216.847 145.209 217.658 146.21 217.658Z" fill="#724342"/>
<path d="M141.573 221.335C142.009 222.492 142.42 223.763 142.289 224.239C142.103 224.81 141.729 225.301 141.228 225.632" stroke="#BB7259" stroke-width="4" stroke-miterlimit="10" stroke-linecap="round"/>
<path d="M125.552 172.866L127.862 175.403L129.39 177.089C130.364 180.495 123.277 185.922 113.426 189.284C103.575 192.647 94.65 192.677 93.3401 189.385L93.5235 187.114L93.8029 183.695C97.5014 184.569 103.92 183.866 110.789 181.512C117.657 179.158 123.168 175.835 125.552 172.866Z" fill="#FFB7D5"/>
<path d="M108.125 173.749C113.277 172.002 117.67 169.67 120.552 167.365L125.552 172.867C123.168 175.836 117.648 179.181 110.775 181.525C103.902 183.87 97.488 184.582 93.7896 183.709L94.3878 176.286C98.0775 176.351 102.972 175.504 108.125 173.749Z" fill="#FF7235"/>
<path d="M115.199 161.479L120.552 167.365C117.67 169.67 113.278 171.993 108.125 173.748C102.973 175.504 98.082 176.368 94.3879 176.29L95.0254 168.356C102.156 167.494 109.027 165.152 115.199 161.479Z" fill="#FFB7D5"/>
<path d="M102.82 158.195C105.15 157.406 107.422 156.453 109.618 155.343L115.199 161.478C109.027 165.152 102.156 167.494 95.0253 168.356L95.6977 160.094C98.1131 159.628 100.493 158.993 102.82 158.195Z" fill="#FF7235"/>
<path d="M95.6979 160.094L97.1869 141.667L109.623 155.343C107.427 156.454 105.155 157.406 102.824 158.195C100.496 158.994 98.1148 159.629 95.6979 160.094Z" fill="#FFB7D5"/>
<path d="M96.1349 145.318C99.8487 145.318 102.859 142.307 102.859 138.594C102.859 134.88 99.8487 131.869 96.1349 131.869C92.421 131.869 89.4104 134.88 89.4104 138.594C89.4104 142.307 92.421 145.318 96.1349 145.318Z" fill="#FF7235"/>
<path d="M106.832 238.05C109.847 238.05 112.29 235.606 112.29 232.591C112.29 229.577 109.847 227.133 106.832 227.133C103.818 227.133 101.374 229.577 101.374 232.591C101.374 235.606 103.818 238.05 106.832 238.05Z" fill="#F4E6D8"/>
<path d="M449.007 261.127L450.129 263.638L456.853 278.707C477.551 276.148 517.229 269.005 527.111 251.15C540.647 226.697 531.477 162.946 513.138 139.803C497.855 156.61 474.223 152.03 464.748 138.057C463.002 138.491 461.223 138.783 459.43 138.93C456.633 139.188 453.814 139.077 451.046 138.598C447.729 138.045 444.588 136.721 441.876 134.734C438.422 132.136 437.16 129.324 437.16 129.324L436.575 129.241C433.894 129.638 421.419 131.66 410.961 136.31C397.599 142.249 367.732 158.579 367.732 158.579C367.339 157.208 366.156 146.41 364.772 133.472L347.812 140.022L345.974 140.733L337.202 144.131L321.251 150.305C322.395 170.862 326.687 192.158 338.477 201.808C357.689 217.528 407.905 192.202 407.905 192.202L401.355 239.797H461.272C461.272 239.797 455.128 241.434 442.496 246.543L445.404 253.054L449.007 261.127Z" fill="#FFB7D5"/>
<path d="M366.422 182.595C361.095 182.595 355.986 184.711 352.219 188.478C348.453 192.245 346.336 197.354 346.336 202.681C346.336 203.725 346.417 204.767 346.576 205.799C358.025 208.856 373.762 205.266 386.434 200.996C386.012 195.979 383.72 191.303 380.014 187.896C376.308 184.488 371.457 182.596 366.422 182.595Z" fill="#FF7235"/>
<path d="M346.773 146.353C346.772 144.456 346.503 142.568 345.974 140.746L337.202 144.143L321.251 150.318C321.543 155.588 322.045 160.906 322.827 166.063C325.737 166.633 328.736 166.552 331.611 165.825C334.485 165.098 337.163 163.744 339.452 161.86C341.741 159.975 343.585 157.608 344.851 154.927C346.116 152.246 346.773 149.318 346.773 146.353Z" fill="#FF7235"/>
<path d="M404.848 160.326C408.195 160.324 411.488 159.486 414.429 157.888C417.37 156.29 419.864 153.982 421.686 151.175C423.508 148.368 424.6 145.15 424.862 141.813C425.124 138.476 424.549 135.127 423.187 132.07C419.011 133.173 414.924 134.591 410.961 136.31C404.813 139.043 395.167 143.977 386.544 148.51C388.135 152.031 390.708 155.019 393.955 157.115C397.201 159.211 400.984 160.326 404.848 160.326Z" fill="#FF7235"/>
<path d="M453.753 206.175C464.846 206.175 473.839 197.182 473.839 186.088C473.839 174.995 464.846 166.002 453.753 166.002C442.66 166.002 433.667 174.995 433.667 186.088C433.667 197.182 442.66 206.175 453.753 206.175Z" fill="#FF7235"/>
<path d="M414.454 217.964C410.754 217.963 407.126 218.99 403.975 220.929L401.355 239.797H434.457C434.51 239.22 434.54 238.639 434.54 238.05C434.54 232.723 432.424 227.614 428.657 223.847C424.89 220.08 419.781 217.964 414.454 217.964Z" fill="#FF7235"/>
<path d="M486.537 150.449C486.537 150.829 486.502 151.209 486.502 151.593C486.504 156.048 487.987 160.377 490.718 163.897C493.449 167.417 497.272 169.93 501.588 171.039C505.903 172.148 510.464 171.791 514.554 170.024C518.644 168.257 522.031 165.18 524.181 161.278C521.094 152.619 517.36 145.122 513.138 139.803C505.431 148.279 495.602 151.313 486.537 150.449Z" fill="#FF7235"/>
<path d="M505.278 235.43C505.279 240.517 507.211 245.415 510.683 249.133C514.155 252.852 518.909 255.114 523.984 255.464C525.189 254.151 526.239 252.703 527.111 251.149C531.564 243.106 533.56 230.806 533.577 217.091C530.518 215.72 527.164 215.136 523.822 215.394C520.479 215.651 517.254 216.741 514.44 218.564C511.627 220.388 509.315 222.886 507.714 225.832C506.114 228.778 505.276 232.077 505.278 235.43Z" fill="#FF7235"/>
<path d="M462.923 255.516C457.732 255.511 452.742 257.523 449.007 261.127L450.129 263.638L456.853 278.707C465.623 277.642 474.334 276.135 482.952 274.192C482.595 269.123 480.33 264.377 476.613 260.911C472.897 257.446 468.004 255.518 462.923 255.516Z" fill="#FF7235"/>
<path d="M496.764 227.352C485.026 231.352 469.198 236.216 459.43 239.36" stroke="#F5EBDC" stroke-width="4" stroke-miterlimit="10" stroke-linecap="round"/>
<path d="M484.323 184.909L488.467 229.972" stroke="#F5EBDC" stroke-width="4" stroke-miterlimit="10" stroke-linecap="round"/>
<path d="M398.434 295.086C399.866 290.662 402.918 281.576 405.599 275.764" stroke="#30242A" stroke-width="4" stroke-miterlimit="10" stroke-linecap="round"/>
<path d="M414.127 279.418C408.04 292.518 404.468 307.452 403.145 313.643" stroke="#30242A" stroke-width="4" stroke-miterlimit="10" stroke-linecap="round"/>
<path d="M422.655 283.68C418.725 292.745 415.284 305.12 413.354 312.735" stroke="#30242A" stroke-width="4" stroke-miterlimit="10" stroke-linecap="round"/>
<path d="M409.315 176.679L406.94 192.529" stroke="#F5EBDC" stroke-width="4" stroke-miterlimit="10" stroke-linecap="round"/>
<path d="M510.955 97.0113C497.611 85.0033 481.581 88.3481 481.581 88.3481C482.188 81.0385 483.406 62.1489 467.569 50.5776C451.731 39.0063 431.624 45.0976 424.314 54.2324C421.336 57.9571 419.873 63.0004 419.022 68.4891C423.886 69.31 431.017 67.6377 431.017 67.6377C440.763 78.602 451.103 81.0385 451.103 81.0385C457.805 73.729 469.988 73.729 471.817 84.0951C473.839 95.5573 459.63 98.7142 459.63 98.7142C459.63 98.7142 456.618 115.049 461.595 131.516C462.304 133.845 463.361 136.053 464.731 138.065C474.206 152.038 497.842 156.623 513.12 139.812C513.877 138.881 514.578 137.907 515.221 136.895C519.644 130.062 528.119 112.46 510.955 97.0113Z" fill="#30242A"/>
<path d="M438.872 118.975C441.696 118.148 444.417 117.005 446.985 115.569" stroke="#30242A" stroke-width="4" stroke-miterlimit="10" stroke-linecap="round"/>
<path d="M482.258 88.2212C481.926 91.5529 481.481 95.7011 481.044 98.976" stroke="black" stroke-width="4" stroke-miterlimit="10" stroke-linecap="round"/>
<path d="M457.849 88.9113L463.285 85.8896" stroke="#30242A" stroke-width="4" stroke-miterlimit="10" stroke-linecap="round"/>
<path d="M426.951 103.085C427.951 103.709 431.693 104.194 433.213 101.316" stroke="#30242A" stroke-width="4" stroke-miterlimit="10" stroke-linecap="round"/>
<path d="M436.794 89.5007C437.794 89.5007 438.606 88.6894 438.606 87.6886C438.606 86.6878 437.794 85.8765 436.794 85.8765C435.793 85.8765 434.981 86.6878 434.981 87.6886C434.981 88.6894 435.793 89.5007 436.794 89.5007Z" fill="#30242A"/>
<path d="M426.729 92.1035C426.449 93.3087 426.218 94.623 426.41 95.0727C426.671 95.6149 427.108 96.0522 427.65 96.3128" stroke="#30242A" stroke-width="4" stroke-miterlimit="10" stroke-linecap="round"/>
<path d="M426.009 86.9804C427.098 82.2819 424.552 77.6784 420.324 76.6982C416.095 75.718 411.784 78.7324 410.695 83.431C409.606 88.1295 412.151 92.7331 416.38 93.7132C420.609 94.6934 424.92 91.679 426.009 86.9804Z" stroke="black" stroke-width="4" stroke-miterlimit="10" stroke-linecap="round"/>
<path d="M445.223 90.0361C446.313 85.3375 443.767 80.734 439.539 79.7539C435.31 78.7737 430.999 81.7881 429.91 86.4866C428.821 91.1852 431.366 95.7887 435.595 96.7689C439.823 97.749 444.134 94.7347 445.223 90.0361Z" stroke="black" stroke-width="4" stroke-miterlimit="10" stroke-linecap="round"/>
<path d="M426.462 86.313L429.519 86.7496" stroke="black" stroke-width="4" stroke-miterlimit="10" stroke-linecap="round"/>
<path d="M340.005 80.2002C340.005 80.2002 348.302 87.1866 349.175 88.9333C349.175 88.9333 335.639 102.906 346.118 119.936" stroke="#30242A" stroke-width="4" stroke-miterlimit="10" stroke-linecap="round"/>
<path d="M384.467 34.966C385.471 33.3261 384.954 31.1835 383.315 30.1802C381.675 29.177 379.532 29.6931 378.529 31.333L312.386 139.45C311.383 141.09 311.899 143.233 313.539 144.236C315.179 145.239 317.322 144.723 318.325 143.083L384.467 34.966Z" fill="#30242A"/>
<path d="M390.478 6.87284L397.997 0.855759C398.61 0.363714 399.36 0.071628 400.144 0.0189054C400.929 -0.0338172 401.71 0.155362 402.384 0.560924C403.057 0.966486 403.59 1.56891 403.911 2.28689C404.231 3.00488 404.324 3.80386 404.176 4.57604L402.372 14.047C402.23 14.7932 402.312 15.5647 402.608 16.2642C402.905 16.9636 403.401 17.5596 404.036 17.9769L412.079 23.2691C412.737 23.7003 413.246 24.3228 413.538 25.0525C413.831 25.7823 413.893 26.5842 413.715 27.35C413.538 28.1159 413.129 28.8089 412.545 29.3355C411.962 29.8621 411.23 30.197 410.45 30.2949L400.918 31.5132C400.164 31.6086 399.455 31.9254 398.881 32.4236C398.306 32.9217 397.893 33.5789 397.691 34.3121L395.146 43.5953C394.937 44.3526 394.501 45.0279 393.898 45.5303C393.294 46.0327 392.55 46.3382 391.768 46.4057C390.985 46.4732 390.201 46.2995 389.52 45.908C388.839 45.5164 388.294 44.9257 387.958 44.2154L383.858 35.4823C383.532 34.798 383.01 34.2256 382.359 33.8371C381.708 33.4486 380.956 33.2614 380.199 33.2991L370.593 33.7357C369.802 33.7852 369.016 33.5892 368.341 33.1746C367.666 32.7601 367.136 32.1471 366.823 31.4196C366.51 30.6922 366.429 29.8858 366.592 29.1107C366.755 28.3357 367.153 27.6299 367.733 27.0899L374.75 20.4964C375.304 19.9758 375.691 19.3026 375.863 18.562C376.035 17.8214 375.983 17.0465 375.715 16.3351L372.318 7.32696C372.039 6.59048 371.993 5.78619 372.186 5.02272C372.379 4.25925 372.801 3.57337 373.396 3.05773C373.991 2.54208 374.731 2.2215 375.514 2.13929C376.297 2.05708 377.086 2.21719 377.776 2.59801L386.216 7.23963C386.883 7.60657 387.644 7.76758 388.403 7.70229C389.161 7.63701 389.883 7.34837 390.478 6.87284Z" fill="#3EC1F3"/>
<path d="M345.463 77.7982C342.407 75.1783 336.534 73.4797 333.673 75.1783C328.844 78.0471 330.032 83.6188 330.032 83.6188C330.032 83.6188 322.172 82.3961 322.268 90.448C322.268 90.448 315.941 93.2164 318.709 99.5435C318.709 99.5435 313.234 100.928 315.836 107.67C317.954 113.167 322.84 116.045 325.814 117.534C328.434 118.844 332.451 116.953 331.054 111.857C331.054 111.857 334.11 112.73 335.857 110.984C338.267 108.573 337.167 103.997 337.167 103.997C337.167 103.997 340.223 104.871 342.407 103.124C345.07 100.993 343.716 97.0109 343.716 97.0109C344.693 96.8793 345.615 96.4847 346.384 95.8693C347.153 95.254 347.74 94.4411 348.083 93.5177C349.83 89.1512 343.28 83.9113 343.28 83.9113L345.463 77.7982Z" fill="#A15842"/>
<path d="M318.391 99.7925C322.235 104.459 326.471 108.787 331.054 112.731" stroke="#30242A" stroke-width="4" stroke-miterlimit="10" stroke-linecap="round"/>
<path d="M322.32 90.4092C326.823 95.9145 331.962 100.867 337.629 105.164" stroke="#30242A" stroke-width="4" stroke-miterlimit="10" stroke-linecap="round"/>
<path d="M329.307 83.9858C333.433 89.4075 338.4 94.135 344.018 97.9893" stroke="#30242A" stroke-width="4" stroke-miterlimit="10" stroke-linecap="round"/>
<path d="M340.005 80.2002C340.005 80.2002 344.097 83.6454 346.834 86.3133" stroke="#30242A" stroke-width="4" stroke-miterlimit="10" stroke-linecap="round"/>
<path d="M442.596 40.9971L440.291 43.534L438.758 45.2195C437.784 48.6254 444.871 54.053 454.726 57.4152C464.582 60.7774 473.503 60.808 474.813 57.5156L474.629 55.2451L474.354 51.8261C470.651 52.6994 464.237 51.9964 457.364 49.6428C450.491 47.2892 444.985 43.9663 442.596 40.9971Z" fill="#FFBE21"/>
<path d="M460.028 41.8795C454.875 40.1329 450.483 37.8011 447.601 35.4956L442.597 40.9974C444.985 43.9667 450.505 47.3114 457.373 49.6563C464.242 52.0011 470.66 52.7128 474.363 51.8395L473.765 44.4164C470.075 44.4819 465.18 43.6348 460.028 41.8795Z" fill="#FF7235"/>
<path d="M452.954 29.6099L447.601 35.4959C450.483 37.8015 454.875 40.1245 460.028 41.8798C465.18 43.6352 470.071 44.4997 473.765 44.4211L473.123 36.4871C465.994 35.6261 459.124 33.2835 452.954 29.6099Z" fill="#FFBE21"/>
<path d="M465.333 26.3255C463.001 25.537 460.727 24.5842 458.53 23.4741L452.954 29.5873C459.124 33.2609 465.994 35.6035 473.123 36.4645L472.455 28.2031C470.04 27.7439 467.66 27.1165 465.333 26.3255Z" fill="#FF7235"/>
<path d="M472.455 28.2251L470.966 9.79834L458.53 23.4743C460.728 24.5844 463.001 25.5372 465.333 26.3256C467.66 27.1241 470.04 27.7588 472.455 28.2251Z" fill="#FFBE21"/>
<path d="M472.014 13.4489C475.728 13.4489 478.738 10.4383 478.738 6.72445C478.738 3.01064 475.728 0 472.014 0C468.3 0 465.289 3.01064 465.289 6.72445C465.289 10.4383 468.3 13.4489 472.014 13.4489Z" fill="#FF7235"/>
</svg>
