<svg width="569" height="554" viewBox="0 0 569 554" fill="none" xmlns="http://www.w3.org/2000/svg">
<path d="M283.11 17.4194H290.056C316.3 17.4258 341.467 27.8559 360.023 46.4159C378.578 64.9758 389.002 90.1458 389.002 116.39V305.201H184.109V116.39C184.109 103.391 186.67 90.5185 191.646 78.5088C196.622 66.4992 203.915 55.5874 213.108 46.3967C222.302 37.206 233.216 29.9165 245.227 24.9445C257.238 19.9725 270.111 17.4155 283.11 17.4194Z" fill="#FFB7D5"/>
<path d="M323.757 191.545V308.141H232.839V191.545H323.757ZM326.166 189.136H230.43V310.55H326.166V189.136Z" fill="#CA7358"/>
<path d="M326.166 189.13H230.43V214.229H326.166V189.13Z" fill="#CA7358"/>
<path d="M229.917 128.498V308.725H175.195V128.498H229.917ZM232.327 126.088H172.785V311.134H232.327V126.088Z" fill="#CA7358"/>
<path d="M398.911 92.0139V308.14H326.678V92.0139H398.911ZM401.32 89.6045H324.268V310.55H401.32V89.6045Z" fill="#CA7358"/>
<path d="M355.59 119.083H356.283C358.9 119.083 361.409 120.122 363.26 121.973C365.11 123.823 366.149 126.333 366.149 128.949V151.188H345.718V128.949C345.718 127.653 345.973 126.37 346.47 125.172C346.966 123.975 347.693 122.887 348.61 121.971C349.527 121.054 350.615 120.328 351.813 119.832C353.01 119.337 354.294 119.082 355.59 119.083Z" fill="#CA7358"/>
<path d="M343.387 136.593H368.486" stroke="#FFB7D5" stroke-width="4" stroke-linecap="round" stroke-linejoin="round"/>
<path d="M355.59 176.679H356.283C358.9 176.679 361.409 177.719 363.26 179.569C365.11 181.419 366.149 183.929 366.149 186.546V208.784H345.718V186.546C345.718 185.249 345.973 183.966 346.47 182.768C346.966 181.571 347.693 180.483 348.61 179.567C349.527 178.651 350.615 177.924 351.813 177.429C353.01 176.933 354.294 176.678 355.59 176.679Z" fill="#F5EBDD"/>
<path d="M343.387 194.189H368.486" stroke="#FFB7D5" stroke-width="4" stroke-linecap="round" stroke-linejoin="round"/>
<path d="M355.59 234.275H356.283C358.9 234.275 361.409 235.314 363.26 237.165C365.11 239.015 366.149 241.525 366.149 244.141V266.38H345.718V244.141C345.718 241.525 346.757 239.015 348.608 237.165C350.458 235.314 352.968 234.275 355.584 234.275H355.59Z" fill="#F5EBDD"/>
<path d="M343.387 251.785H368.486" stroke="#FFB7D5" stroke-width="4" stroke-linecap="round" stroke-linejoin="round"/>
<path d="M355.59 291.871H356.283C358.9 291.871 361.409 292.911 363.26 294.761C365.11 296.611 366.149 299.121 366.149 301.737V322.169H345.718V301.737C345.718 300.441 345.973 299.158 346.47 297.96C346.966 296.763 347.693 295.675 348.61 294.759C349.527 293.843 350.615 293.116 351.813 292.62C353.01 292.125 354.294 291.87 355.59 291.871Z" fill="#30242A"/>
<path d="M401.32 89.6045H324.268V99.2359H401.32V89.6045Z" fill="#CA7358"/>
<path d="M232.327 121.42H172.785V131.051H232.327V121.42Z" fill="#CA7358"/>
<path d="M268.082 236.998H247.65V263.266H268.082V236.998Z" fill="#F5EBDD"/>
<path d="M245.313 248.671H270.419" stroke="#FFB7D5" stroke-width="4" stroke-linecap="round" stroke-linejoin="round"/>
<path d="M257.866 264.435V248.671" stroke="#FFB7D5" stroke-width="4" stroke-linecap="round" stroke-linejoin="round"/>
<path d="M268.082 284.438H247.65V310.707H268.082V284.438Z" fill="#CA7358"/>
<path d="M245.313 296.112H270.419" stroke="#FFB7D5" stroke-width="4" stroke-linecap="round" stroke-linejoin="round"/>
<path d="M257.866 311.875V296.112" stroke="#FFB7D5" stroke-width="4" stroke-linecap="round" stroke-linejoin="round"/>
<path d="M306.608 236.998H286.176V263.266H306.608V236.998Z" fill="#30242A"/>
<path d="M283.845 248.671H308.945" stroke="#FFB7D5" stroke-width="4" stroke-linecap="round" stroke-linejoin="round"/>
<path d="M296.392 264.435V248.671" stroke="#FFB7D5" stroke-width="4" stroke-linecap="round" stroke-linejoin="round"/>
<path d="M306.608 284.438H286.176V310.707H306.608V284.438Z" fill="#F5EBDD"/>
<path d="M283.845 296.112H308.945" stroke="#FFB7D5" stroke-width="4" stroke-linecap="round" stroke-linejoin="round"/>
<path d="M296.392 311.875V296.112" stroke="#FFB7D5" stroke-width="4" stroke-linecap="round" stroke-linejoin="round"/>
<path d="M244 88.7311C252.383 88.7311 259.179 81.9352 259.179 73.5521C259.179 65.1689 252.383 58.373 244 58.373C235.617 58.373 228.821 65.1689 228.821 73.5521C228.821 81.9352 235.617 88.7311 244 88.7311Z" fill="#F5EBDD"/>
<path d="M415.27 305.297H157.841V322.807H415.27V305.297Z" fill="#F5EBDD"/>
<path d="M290.622 0H282.508C218.503 0 166.617 51.8858 166.617 115.891V322.807H406.536V115.891C406.518 51.8858 354.627 0 290.622 0ZM277.804 305.297H184.109V159.362H277.804V305.297ZM277.804 141.852H184.109V116.487C184.11 91.1518 193.827 66.7815 211.257 48.3953C228.687 30.009 252.505 19.0068 277.804 17.6547V141.852ZM389.002 305.297H295.314V159.362H389.002V305.297ZM389.002 141.852H295.314V17.6547C320.612 19.0069 344.429 30.0093 361.859 48.3957C379.288 66.7821 389.003 91.1524 389.002 116.487V141.852Z" fill="#F5EBDD"/>
<path d="M489.744 339.721C489.748 340.365 489.616 341.004 489.358 341.594C487.551 345.708 479.829 346.317 472.149 342.95C465.716 340.137 461.343 335.426 461.157 331.553V382.921H489.762V339.721H489.744Z" fill="#FFBE21"/>
<path d="M478.745 328.066C471.065 324.699 463.355 325.307 461.536 329.421C461.244 330.097 461.114 330.831 461.157 331.566C461.344 335.439 465.717 340.149 472.15 342.962C479.83 346.329 487.54 345.721 489.359 341.607C489.617 341.016 489.748 340.378 489.744 339.733C489.762 335.812 485.335 330.945 478.745 328.066Z" fill="#A15842"/>
<path d="M511.675 356.665C511.488 360.538 507.115 365.248 500.682 368.067C492.996 371.428 485.292 370.826 483.467 366.706C483.212 366.117 483.081 365.481 483.082 364.839V382.909H511.681V356.665H511.675Z" fill="#FFBE21"/>
<path d="M511.296 354.52C509.488 350.406 501.766 349.798 494.081 353.165C487.497 356.05 483.07 360.911 483.082 364.839C483.081 365.481 483.212 366.116 483.467 366.706C485.274 370.826 492.996 371.428 500.682 368.067C507.115 365.248 511.488 360.538 511.675 356.665C511.718 355.93 511.588 355.196 511.296 354.52Z" fill="#A15842"/>
<path d="M483.919 382.933V365.423" stroke="#A15842" stroke-width="4" stroke-miterlimit="10" stroke-linecap="round"/>
<path d="M475.456 324.265V334.192" stroke="#30242A" stroke-width="4" stroke-linecap="round" stroke-linejoin="round"/>
<path d="M497.382 349.371V359.875" stroke="#30242A" stroke-width="4" stroke-linecap="round" stroke-linejoin="round"/>
<path d="M352.982 553.553C352.252 553.553 351.532 553.381 350.881 553.049C350.231 552.717 349.669 552.235 349.241 551.644C348.813 551.052 348.531 550.368 348.419 549.646C348.307 548.925 348.368 548.187 348.597 547.493L363.053 503.438C363.358 502.514 363.947 501.711 364.735 501.141C365.524 500.571 366.471 500.264 367.444 500.264H377.576C378.38 500.263 379.171 500.473 379.87 500.873C380.569 501.273 381.151 501.848 381.558 502.542C381.965 503.237 382.184 504.025 382.192 504.83C382.201 505.635 381.998 506.428 381.605 507.13L356.993 551.186C356.595 551.901 356.014 552.497 355.309 552.913C354.604 553.33 353.801 553.55 352.982 553.553Z" fill="#30242A"/>
<path d="M546.647 553.553C547.377 553.553 548.097 553.381 548.748 553.049C549.398 552.717 549.96 552.235 550.388 551.644C550.816 551.052 551.098 550.368 551.21 549.646C551.322 548.925 551.261 548.187 551.032 547.493L536.576 503.438C536.271 502.515 535.683 501.712 534.896 501.142C534.109 500.573 533.163 500.265 532.191 500.264H522.053C521.249 500.265 520.459 500.476 519.762 500.876C519.064 501.276 518.483 501.852 518.076 502.545C517.669 503.239 517.45 504.027 517.441 504.831C517.432 505.635 517.633 506.428 518.024 507.13L542.635 551.186C543.035 551.9 543.616 552.496 544.321 552.912C545.026 553.328 545.829 553.549 546.647 553.553Z" fill="#30242A"/>
<path d="M569 382.934H331.418V518.943H569V382.934Z" fill="#A15842"/>
<path d="M551.484 400.443H348.928V501.432H551.484V400.443Z" fill="#FFB7D5"/>
<path d="M449.989 398.696V503.185" stroke="#A15842" stroke-width="4" stroke-miterlimit="10"/>
<path d="M473.86 457.057C477.24 457.057 479.98 454.318 479.98 450.938C479.98 447.558 477.24 444.818 473.86 444.818C470.48 444.818 467.74 447.558 467.74 450.938C467.74 454.318 470.48 457.057 473.86 457.057Z" fill="#30242A"/>
<path d="M426.552 457.057C429.932 457.057 432.672 454.318 432.672 450.938C432.672 447.558 429.932 444.818 426.552 444.818C423.172 444.818 420.432 447.558 420.432 450.938C420.432 454.318 423.172 457.057 426.552 457.057Z" fill="#30242A"/>
<path d="M39.6315 496.932V506.853H125.441V496.932H39.6315Z" fill="#A15842"/>
<path d="M139.578 548.421L118.321 420.875H131.32C132.713 420.875 134.049 420.322 135.034 419.337C136.019 418.352 136.572 417.016 136.572 415.623C136.572 414.23 136.019 412.894 135.034 411.909C134.049 410.924 132.713 410.37 131.32 410.37H33.855C32.462 410.37 31.126 410.924 30.1409 411.909C29.1559 412.894 28.6026 414.23 28.6026 415.623C28.6026 417.016 29.1559 418.352 30.1409 419.337C31.126 420.322 32.462 420.875 33.855 420.875H46.7511L25.4945 548.421C25.3895 549.052 25.4233 549.699 25.5936 550.316C25.7638 550.933 26.0663 551.506 26.4802 551.994C26.894 552.483 27.4092 552.875 27.99 553.144C28.5708 553.413 29.2033 553.553 29.8434 553.553C30.8496 553.554 31.8258 553.21 32.6094 552.579C33.393 551.947 33.9368 551.067 34.1501 550.083L62.3157 420.875H102.757L130.916 550.083C131.132 551.067 131.677 551.947 132.462 552.578C133.246 553.209 134.223 553.553 135.229 553.553C135.869 553.553 136.502 553.413 137.083 553.144C137.663 552.875 138.179 552.483 138.592 551.994C139.006 551.506 139.309 550.933 139.479 550.316C139.649 549.699 139.683 549.052 139.578 548.421Z" fill="#FFBE21"/>
<path d="M131.32 420.875C132.713 420.875 134.049 420.322 135.034 419.337C136.019 418.352 136.572 417.016 136.572 415.623C136.572 414.23 136.019 412.894 135.034 411.909C134.049 410.924 132.713 410.37 131.32 410.37H33.8548C32.4618 410.37 31.1258 410.924 30.1408 411.909C29.1558 412.894 28.6024 414.23 28.6024 415.623C28.6024 417.016 29.1558 418.352 30.1408 419.337C31.1258 420.322 32.4618 420.875 33.8548 420.875H46.751V421.038H62.3035L62.3396 420.875H102.781L102.817 421.038H118.37V420.875H131.32Z" fill="#A15842"/>
<path d="M137.097 496.764H199.138C199.909 483.591 202.661 466.117 204.944 442.511C206.974 421.58 208.721 404.009 208.607 389.505C208.414 365.327 146.565 394.589 146.565 394.589C146.565 399.871 147.631 404.943 147.662 409.858C147.734 422.628 141.265 433.494 136.645 448.896C129.64 472.249 135.476 496.764 135.476 496.764H137.097Z" fill="#4856DF"/>
<path d="M202.445 546.963H148.131C147.377 547.203 146.734 547.704 146.317 548.377C145.901 549.05 145.738 549.849 145.859 550.631C145.979 551.413 146.375 552.126 146.975 552.642C147.575 553.158 148.34 553.442 149.131 553.444L229.056 553.552C229.761 545.782 225.346 539.933 212.889 531.266C205.781 537.428 202.445 546.963 202.445 546.963Z" fill="#3EC1F3"/>
<path d="M210.089 529.381C207.509 527.713 205.28 525.556 203.529 523.032C199.313 516.846 198.421 508.515 199.114 496.764H145.349C145.453 505.55 146.086 514.322 147.246 523.032C148.619 532.892 150.475 539.675 151.963 546.806H149.138C148.796 546.806 148.457 546.859 148.132 546.963H202.445C202.445 546.963 205.782 537.428 212.889 531.302C211.998 530.672 211.064 530.031 210.089 529.381Z" fill="#A15842"/>
<path d="M199.764 486.211C196.439 479.592 194.173 472.492 193.048 465.171C189.115 437.843 191.446 423.832 180.357 411.562H147.909" stroke="#30242A" stroke-width="4" stroke-linecap="round" stroke-linejoin="round"/>
<path d="M219.997 499.095L220.057 499.239L267.955 476.808C264.227 465.653 260.33 450.811 253.927 431.386C247.928 413.207 243.958 399.624 240.2 389.113C234.943 392.899 228.461 394.584 222.026 393.837C215.591 393.089 209.668 389.963 205.42 385.073C201.171 380.182 198.904 373.88 199.064 367.404C199.223 360.928 201.798 354.745 206.282 350.069C180.712 338.516 89.897 330.981 89.897 330.981L38.5232 323.392C35.8127 327.873 33.5057 334.975 32.2528 343.269H50.2026V362.466C50.193 366.347 48.6452 370.067 45.8983 372.809C43.1513 375.552 39.4292 377.093 35.5476 377.096H34.5236C34.2827 377.096 34.0418 377.096 33.8068 377.096C38.7099 395.167 51.323 410.388 77.0671 410.388H180.971C192.06 422.646 189.729 436.656 193.663 463.996C196.879 486.361 212.124 502.848 212.124 502.848L219.997 499.095Z" fill="#4856DF"/>
<path d="M292.965 524.785L245.259 546.421C244.451 546.985 243.885 547.833 243.673 548.795C243.461 549.758 243.619 550.765 244.115 551.616C244.611 552.468 245.409 553.102 246.351 553.392C247.292 553.683 248.309 553.609 249.198 553.185L321.588 519.454C318.751 511.623 311.457 508.612 294.175 505.6L293.434 505.461C292.002 511.808 291.843 518.376 292.965 524.785Z" fill="#3EC1F3"/>
<path d="M293.434 505.437C288.459 504.486 284.556 502.829 281.333 500.323C275.394 495.697 271.756 488.168 267.955 476.832L220.057 499.263C224.117 508.594 229.815 518.406 235.242 526.971C239.983 534.428 244.506 540.927 247.548 545.282L245.819 546.119C245.623 546.215 245.436 546.328 245.259 546.457L292.965 524.821C291.835 518.392 291.994 511.803 293.434 505.437Z" fill="#A15842"/>
<path d="M225.032 394.022C230.479 394.025 235.788 392.307 240.199 389.113C232.724 368.103 226.243 359.351 206.643 350.231L206.281 350.069C202.758 353.743 200.392 358.371 199.478 363.379C198.563 368.387 199.141 373.553 201.139 378.234C203.137 382.916 206.467 386.908 210.715 389.713C214.963 392.517 219.942 394.012 225.032 394.01V394.022Z" fill="#3EC1F3"/>
<path d="M35.5475 377.096C39.4364 377.096 43.1661 375.552 45.9166 372.803C48.667 370.053 50.213 366.324 50.2146 362.435V343.239H32.2648C30.6806 353.653 30.7709 365.905 33.8068 377.078C34.0417 377.078 34.2826 377.078 34.5235 377.078L35.5475 377.096Z" fill="#3EC1F3"/>
<path d="M180.086 411.828H197.596" stroke="#30242A" stroke-width="4" stroke-linecap="round" stroke-linejoin="round"/>
<path d="M255.402 226.198C255.402 226.198 223.882 190.009 186.639 176.884" stroke="#30242A" stroke-width="4" stroke-linecap="round" stroke-linejoin="round"/>
<path d="M156.534 191.021C155.389 188.256 159.208 183.919 165.569 180.257C156.956 178.113 150.836 174.119 151.45 170.764C152.065 167.409 159.196 165.831 168.015 166.867C163.377 161.205 161.335 155.796 163.383 153.615C165.991 150.827 174.267 154.344 181.862 161.446C188.488 167.65 192.403 174.553 191.572 178.064C191.108 181.642 185.007 186.714 176.622 190.184C166.979 194.183 157.998 194.557 156.534 191.021Z" fill="#4756DF"/>
<path d="M191.886 189.304C197.96 189.304 202.885 184.379 202.885 178.305C202.885 172.23 197.96 167.306 191.886 167.306C185.811 167.306 180.887 172.23 180.887 178.305C180.887 184.379 185.811 189.304 191.886 189.304Z" fill="#30242A"/>
<path d="M215.06 192.471C218.082 191.349 216.708 180.142 211.992 167.44C207.275 154.738 201.002 145.351 197.98 146.473C194.958 147.595 196.332 158.801 201.048 171.504C205.765 184.206 212.038 193.593 215.06 192.471Z" fill="#30242A"/>
<path d="M214.521 194.677C214.521 194.677 219.196 207.519 216.859 220.945" stroke="#30242A" stroke-width="4" stroke-linecap="round" stroke-linejoin="round"/>
<path d="M129.284 143.526C119.321 154.735 108.732 157.211 108.732 157.211C101.883 149.742 89.4571 149.742 87.5597 160.325C85.4937 172.053 99.9981 175.281 99.9981 175.281C99.9981 175.281 103.654 190.412 98.0465 197.887C93.0953 204.513 86.7345 205.603 73.6998 207.061C90.6859 235.763 108.033 233.498 113.81 233.498C127.664 233.498 131.567 217.421 132.657 209.133C129.503 208.033 126.284 207.126 123.02 206.416L121.152 195.213C121.152 195.213 129.868 198.321 137.343 193.966C144.818 189.611 146.686 181.51 144.192 169.059C142.716 161.68 142.77 152.555 141.506 144.399C136.572 145.237 129.284 143.526 129.284 143.526Z" fill="#A15842"/>
<path d="M232.911 206.061C230.267 195.478 209.564 189.737 209.564 189.737C209.564 189.737 210.805 165.981 205.475 165.222C201.391 164.62 197.301 174.564 193.801 193.827C189.886 215.355 192.048 255.116 192.048 255.116C192.048 255.116 187.717 251.182 181.574 245.707C180.96 246.948 180.018 247.997 178.85 248.741C177.682 249.484 176.332 249.893 174.948 249.924C175.821 251.031 176.369 252.36 176.528 253.761C176.687 255.163 176.452 256.581 175.85 257.856C175.247 259.131 174.3 260.212 173.116 260.979C171.932 261.745 170.557 262.166 169.147 262.193C170.021 263.3 170.568 264.63 170.728 266.031C170.887 267.432 170.652 268.85 170.049 270.126C169.446 271.401 168.5 272.482 167.315 273.248C166.131 274.015 164.757 274.435 163.347 274.463C164.263 275.625 164.82 277.031 164.947 278.506C165.073 279.981 164.765 281.461 164.061 282.763C163.356 284.065 162.285 285.132 160.981 285.832C159.676 286.532 158.195 286.835 156.721 286.703C169.509 295.027 186.892 304.737 198.475 304.737C259.179 304.713 234.664 213.066 232.911 206.061Z" fill="#A15842"/>
<path d="M164.226 282.372C164.828 281.097 165.063 279.679 164.905 278.278C164.746 276.877 164.2 275.547 163.329 274.439C164.739 274.411 166.113 273.991 167.297 273.225C168.481 272.458 169.428 271.377 170.031 270.102C170.634 268.827 170.869 267.408 170.709 266.007C170.55 264.606 170.003 263.277 169.129 262.169C170.539 262.142 171.914 261.721 173.098 260.955C174.282 260.189 175.229 259.107 175.831 257.832C176.434 256.557 176.669 255.139 176.51 253.737C176.351 252.336 175.803 251.007 174.93 249.9C176.314 249.869 177.663 249.46 178.831 248.717C179.999 247.973 180.942 246.924 181.555 245.683C170.966 236.251 154.998 222.264 146.499 215.982C142.385 212.94 137.145 210.687 132.645 209.133C131.585 217.445 127.706 233.498 113.852 233.498C108.1 233.498 90.7282 235.763 73.7421 207.061L68.2849 207.663C49.4918 209.754 40.9385 219.867 35.903 231.95C32.7888 239.425 30.2952 253.122 30.2952 253.122C28.3631 265.68 27.3685 278.364 27.3196 291.07L51.7566 313.688L117.364 315.308C122.616 307.562 132.254 293.256 135.434 287.769C139.518 280.764 140.102 274.927 140.102 274.927C140.102 274.927 147.113 280.408 156.721 286.667C158.26 286.802 159.805 286.463 161.146 285.695C162.488 284.927 163.562 283.768 164.226 282.372Z" fill="#FFBE21"/>
<path d="M136.139 129.823C128.67 120.487 108.118 114.259 91.9269 126.089C75.736 137.919 76.9828 157.224 77.6032 164.699C77.6032 164.699 60.1714 159.091 47.715 172.168C44.11 175.906 41.4846 180.478 40.0722 185.476C38.6599 190.473 38.5044 195.743 39.6195 200.815C39.6195 200.815 16.6823 200.171 12.2189 221.367C9.68308 233.414 14.4175 241.431 19.6699 246.394C22.7505 249.285 26.3493 251.568 30.2772 253.123C30.2772 253.123 32.7709 239.425 35.885 231.95C40.9206 219.867 49.4738 209.754 68.2669 207.664L73.7241 207.061C86.7588 205.604 93.1196 204.496 98.0708 197.888C103.673 190.413 99.9983 175.282 99.9983 175.282C99.9983 175.282 85.4758 172.053 87.5419 160.338C89.4152 149.755 101.866 149.755 108.714 157.224C108.714 157.224 119.303 154.736 129.266 143.526C129.266 143.526 136.554 145.237 141.524 144.4C140.675 138.786 139.181 133.636 136.139 129.823Z" fill="#30242A"/>
<path d="M234.206 214.38C232.441 213.567 231.387 211.519 231.688 207.604C231.688 207.604 228.038 212.182 224.153 210.146C220.268 208.11 221.822 203.725 221.822 203.725C221.822 203.725 218.316 206.062 215.401 203.122C212.757 200.478 214.799 196.117 214.799 196.117C214.799 196.117 210.92 197.701 209.546 194.949C207.818 191.503 209.92 187.895 212.197 185.13" stroke="#30242A" stroke-width="8" stroke-linecap="round" stroke-linejoin="round"/>
<path d="M38.5111 201.321C39.1711 204.442 40.3608 207.427 42.0288 210.146" stroke="black" stroke-width="4" stroke-miterlimit="10" stroke-linecap="round"/>
<path d="M190.88 255.869L192.343 274.066" stroke="#30242A" stroke-width="4" stroke-linecap="round" stroke-linejoin="round"/>
<path d="M138.054 254.791C141.867 261.657 141.819 269.897 141.325 274.782" stroke="#30242A" stroke-width="4" stroke-linecap="round" stroke-linejoin="round"/>
<path d="M103.612 274.065L84.9335 274.65" stroke="#30242A" stroke-width="4" stroke-linecap="round" stroke-linejoin="round"/>
<path d="M120.833 196.363C118.223 195.339 115.676 194.158 113.208 192.828" stroke="#30242A" stroke-width="4" stroke-linecap="round" stroke-linejoin="round"/>
<path d="M125.501 213.651L124.484 207.2" stroke="#30242A" stroke-width="4" stroke-linecap="round" stroke-linejoin="round"/>
<path d="M76.3444 164.933L77.6394 175.703" stroke="black" stroke-width="4" stroke-miterlimit="10" stroke-linecap="round"/>
<path d="M138.054 177.752C136.735 178.607 132.362 178.89 130.266 175.077" stroke="#30242A" stroke-width="4" stroke-linecap="round" stroke-linejoin="round"/>
<path d="M103.028 165.488L97.1913 162.572" stroke="#30242A" stroke-width="4" stroke-linecap="round" stroke-linejoin="round"/>
<path d="M129.977 162.904C129.043 164.175 124.64 166.638 121.327 163.825" stroke="#30242A" stroke-width="4" stroke-linecap="round" stroke-linejoin="round"/>
<path d="M144.162 161.066C143.465 161.214 142.745 161.223 142.044 161.093C141.344 160.963 140.675 160.696 140.078 160.307" stroke="#30242A" stroke-width="4" stroke-linecap="round" stroke-linejoin="round"/>
<path d="M136.265 163.235C136.934 164.747 137.578 166.415 137.44 167.054C137.234 167.83 136.771 168.514 136.127 168.993" stroke="#30242A" stroke-width="4" stroke-linecap="round" stroke-linejoin="round"/>
<path d="M99.8297 172.541L91.8607 180.058C91.4293 180.465 91.1093 180.976 90.9314 181.541C90.7534 182.107 90.7235 182.709 90.8443 183.289C90.9651 183.87 91.2327 184.41 91.6215 184.858C92.0104 185.305 92.5075 185.646 93.0654 185.847L102.486 189.19C103.046 189.388 103.647 189.439 104.233 189.338C104.818 189.237 105.367 188.987 105.829 188.613C106.29 188.239 106.647 187.753 106.867 187.201C107.086 186.649 107.16 186.05 107.082 185.461L105.63 174.619C105.545 173.989 105.289 173.394 104.889 172.9C104.489 172.405 103.961 172.031 103.362 171.816C102.763 171.602 102.117 171.556 101.494 171.684C100.871 171.812 100.295 172.108 99.8297 172.541Z" fill="#F4E6D8"/>
<path d="M214.232 174.541C214.232 174.541 218.316 172.204 221.822 173.372C227.243 175.179 226.448 180.227 226.448 180.227C226.448 180.227 234.049 177.486 235.525 185.521C235.525 185.521 242.38 187.057 240.838 193.912C240.838 193.912 246.385 194.207 245.283 201.477C244.181 208.748 239.332 214.789 236.417 214.789C233.405 214.789 231.279 212.94 231.688 207.561C231.688 207.561 228.038 212.139 224.153 210.103C220.268 208.067 221.822 203.682 221.822 203.682C221.822 203.682 218.316 206.019 215.401 203.08C212.757 200.435 214.799 196.074 214.799 196.074C214.799 196.074 210.92 197.659 209.546 194.906C206.625 189.069 214.66 182.793 215.967 180.901L214.232 174.541Z" fill="#A15842"/>
<path d="M212.498 198.201C216.509 194.52 223.34 187.575 226.581 180.287" stroke="#30242A" stroke-width="4" stroke-linecap="round" stroke-linejoin="round"/>
<path d="M219.864 206.603C226.531 200.934 231.972 193.966 235.857 186.124" stroke="#30242A" stroke-width="4" stroke-linecap="round" stroke-linejoin="round"/>
<path d="M230.182 210.928C231.989 208.723 238.308 200.803 241.44 194.532" stroke="#30242A" stroke-width="4" stroke-linecap="round" stroke-linejoin="round"/>
<path d="M229.05 344.992H127.953L150.932 272.391C151.612 270.254 152.954 268.388 154.765 267.065C156.575 265.742 158.76 265.029 161.003 265.031H246.434C248.093 265.03 249.73 265.421 251.211 266.171C252.691 266.921 253.974 268.01 254.955 269.349C255.936 270.688 256.588 272.24 256.857 273.877C257.126 275.515 257.006 277.194 256.505 278.776L237.501 338.812C236.93 340.605 235.803 342.17 234.284 343.281C232.765 344.392 230.932 344.991 229.05 344.992Z" fill="#30242A"/>
<path d="M69.2786 336.818C68.9804 337.759 68.908 338.756 69.0675 339.73C69.2269 340.704 69.6136 341.626 70.1963 342.422C70.7789 343.218 71.541 343.866 72.4208 344.313C73.3006 344.759 74.2733 344.992 75.2599 344.992H229.05C230.931 344.988 232.761 344.386 234.277 343.272C235.793 342.159 236.916 340.593 237.483 338.8L238.085 336.818H69.2786Z" fill="#30242A"/>
<path d="M213.564 298.762C211.215 295.545 200.535 304.038 199.752 304.743C199.342 304.038 193.789 295.545 189.711 298.762C186.175 301.551 193.927 314.001 196.017 317.175C196.104 317.272 196.21 317.349 196.328 317.402C196.446 317.455 196.575 317.482 196.704 317.482C196.834 317.482 196.962 317.455 197.08 317.402C197.199 317.349 197.304 317.272 197.391 317.175C201.192 313.971 215.606 301.52 213.564 298.762Z" fill="#FFBE21"/>
<path d="M203.806 296.489C204.655 293.764 204.619 291.329 203.727 291.051C202.834 290.773 201.423 292.757 200.574 295.482C199.725 298.207 199.76 300.642 200.653 300.92C201.545 301.198 202.957 299.214 203.806 296.489Z" fill="#FFBE21"/>
<path d="M11.3516 279.168C12.6638 279.674 14.0906 279.805 15.4732 279.548C16.8557 279.291 18.1397 278.654 19.182 277.71C19.3056 279.117 19.8201 280.461 20.6672 281.591C21.5144 282.72 22.6606 283.59 23.9763 284.103C25.2919 284.615 26.7247 284.75 28.1127 284.491C29.5008 284.232 30.7887 283.59 31.8312 282.638C31.958 284.042 32.4744 285.384 33.3223 286.511C34.1702 287.639 35.316 288.507 36.6306 289.018C37.9452 289.53 39.3765 289.664 40.7634 289.406C42.1502 289.148 43.4375 288.509 44.4804 287.559C44.5769 288.668 44.917 289.742 45.4764 290.704C46.0359 291.667 46.8008 292.494 47.7167 293.127C48.6326 293.76 49.6769 294.183 50.775 294.366C51.8732 294.548 52.9982 294.487 54.0697 294.185L63.1771 269.723C66.6848 260.334 68.3476 250.355 68.0742 240.335L67.1526 207.809C67.1526 207.809 46.1368 209.555 33.8792 224.734C27.5907 232.523 15.2487 253.099 7.33997 275.47C8.17106 277.158 9.60118 278.477 11.3516 279.168Z" fill="#FFBE21"/>
<path d="M49.293 293.943C47.9738 293.435 46.8232 292.568 45.9716 291.439C45.12 290.311 44.6013 288.967 44.4742 287.559C43.4313 288.508 42.144 289.148 40.7572 289.406C39.3704 289.664 37.9391 289.53 36.6244 289.018C35.3098 288.507 34.164 287.639 33.3161 286.511C32.4682 285.384 31.9518 284.042 31.825 282.637C30.7826 283.59 29.4946 284.232 28.1066 284.491C26.7185 284.749 25.2858 284.615 23.9701 284.103C22.6544 283.59 21.5082 282.72 20.6611 281.59C19.8139 280.461 19.2994 279.117 19.1758 277.71C18.3088 278.5 17.2702 279.078 16.142 279.398C15.0137 279.718 13.8266 279.772 12.674 279.555C11.5214 279.338 10.4348 278.857 9.49979 278.149C8.56476 277.441 7.80679 276.526 7.28559 275.476C0.430928 294.865 -3.0988 315.61 3.53901 330.542C17.8266 362.701 60.7074 351.383 70.8267 348.407C80.9461 345.432 100.607 335.306 113.707 337.095C126.808 338.884 141.692 345.432 144.078 337.095C144.078 337.095 152.095 336.89 149.571 329.265C149.571 329.265 153.601 328.765 154.197 325.789C155.402 319.832 141.096 314.477 141.096 314.477C141.096 314.477 152.414 316.284 154.793 313.875C157.805 310.863 154.878 306.002 136.392 301.521C116.087 296.606 89.2885 299.581 49.3893 306.725L54.0575 294.178C52.486 294.62 50.8134 294.537 49.293 293.943Z" fill="#A15842"/>
<path d="M63.3337 266.476L50.0039 305.387" stroke="#30242A" stroke-width="4" stroke-linecap="round" stroke-linejoin="round"/>
<path d="M144.692 314.905C138.223 312.447 127.453 308.677 119.092 307.315" stroke="#30242A" stroke-width="4" stroke-linecap="round" stroke-linejoin="round"/>
<path d="M149.74 328.951C141.427 325.211 125.55 318.422 117.008 317.146" stroke="#30242A" stroke-width="4" stroke-linecap="round" stroke-linejoin="round"/>
<path d="M49.4858 305.472C45.0044 306.195 37.969 307.394 30.9397 308.797" stroke="#30242A" stroke-width="4" stroke-linecap="round" stroke-linejoin="round"/>
<path d="M143.831 337.914C137.596 334.74 124.459 328.427 115.225 326.668" stroke="#30242A" stroke-width="4" stroke-linecap="round" stroke-linejoin="round"/>
<path d="M422.854 261.055C422.854 261.055 418.119 271.705 405.699 271.705C393.279 271.705 388.52 261.055 388.52 261.055C388.52 261.055 353.584 340.926 387.918 382.933H423.414C457.729 340.926 422.854 261.055 422.854 261.055Z" fill="#3EC1F3"/>
<path d="M405.669 271.705C418.089 271.705 422.823 261.055 422.823 261.055H388.49C388.49 261.055 393.242 271.705 405.669 271.705Z" fill="#30242A"/>
<path d="M437.756 332.162C418.445 332.505 395.592 339.48 378.004 364.086" stroke="#F5EBDD" stroke-width="4" stroke-linecap="round" stroke-linejoin="round"/>
<path d="M374.913 312.616C387.876 309.454 412.421 306.442 436.214 312.104" stroke="#F5EBDD" stroke-width="4" stroke-linecap="round" stroke-linejoin="round"/>
<path d="M436.105 352.666C427.468 352.768 411.5 362.556 413.258 382.283" stroke="#F5EBDD" stroke-width="4" stroke-linecap="round" stroke-linejoin="round"/>
<path d="M403.494 268.162C403.133 259.579 400.85 225.468 387.297 205.458" stroke="#30242A" stroke-width="4" stroke-miterlimit="10" stroke-linecap="round"/>
<path d="M400.67 241.934C402.402 238.997 393.218 230.369 380.156 222.662C367.094 214.956 355.1 211.089 353.367 214.026C351.635 216.963 360.819 225.591 373.881 233.297C386.943 241.004 398.937 244.87 400.67 241.934Z" fill="#30242A"/>
<path d="M395.598 156.809C398.141 155.359 396.834 148.275 392.678 140.986C388.523 133.698 383.092 128.965 380.549 130.415C378.006 131.865 379.313 138.949 383.469 146.237C387.624 153.526 393.054 158.259 395.598 156.809Z" fill="#30242A"/>
<path d="M350.862 187.708C352.229 184.667 358.662 184.444 366.48 186.775C361.662 178.155 360.186 170.138 363.372 168.072C366.559 166.006 373.293 170.578 379.202 178.511C380.244 170.421 383.063 164.657 386.43 164.621C390.683 164.621 394.164 173.999 394.206 185.6C394.232 188.918 393.937 192.23 393.327 195.491C391.473 194.641 389.436 194.269 387.401 194.407C385.366 194.545 383.398 195.19 381.676 196.282C379.953 197.374 378.531 198.88 377.539 200.661C376.546 202.443 376.014 204.444 375.992 206.483C372.873 205.719 369.832 204.666 366.908 203.339C356.289 198.587 349.121 191.594 350.862 187.708Z" fill="#4756DF"/>
<path d="M381.539 196.363C383.267 195.24 385.251 194.571 387.307 194.421C389.363 194.27 391.423 194.642 393.297 195.502C392.261 200.893 390.388 204.892 388.135 206.193C385.99 207.753 381.449 207.814 375.961 206.494C375.984 204.477 376.505 202.496 377.478 200.728C378.451 198.961 379.846 197.461 381.539 196.363Z" fill="#30242A"/>
<path d="M408.012 267.645C409.674 258.164 418.33 211.681 432.184 185.383" stroke="#30242A" stroke-width="4" stroke-miterlimit="10" stroke-linecap="round"/>
<path d="M478.945 249.802C479.941 246.726 466.634 239.659 449.221 234.018C431.809 228.377 416.886 226.298 415.889 229.374C414.893 232.451 428.2 239.517 445.613 245.158C463.025 250.799 477.948 252.878 478.945 249.802Z" fill="#30242A"/>
<path d="M429.576 144.634C432.901 144.333 436.25 149.833 438.051 157.79C443.183 149.357 449.459 144.14 452.826 145.905C456.193 147.67 455.507 155.778 451.489 164.819C459.054 161.765 465.481 161.379 467.15 164.283C469.246 167.981 462.771 175.625 452.694 181.347C449.82 182.995 446.794 184.362 443.659 185.431C443.487 183.401 442.811 181.446 441.693 179.743C440.575 178.04 439.05 176.642 437.256 175.678C435.461 174.713 433.454 174.211 431.417 174.218C429.38 174.224 427.376 174.739 425.588 175.715C424.728 172.62 424.153 169.453 423.872 166.252C422.757 154.699 425.341 145.02 429.576 144.634Z" fill="#4756DF"/>
<path d="M437.087 175.607C438.914 176.563 440.47 177.964 441.61 179.682C442.751 181.399 443.439 183.377 443.611 185.431C438.4 187.172 433.973 187.503 431.757 186.178C429.347 185.076 427.064 181.143 425.522 175.716C427.291 174.745 429.273 174.226 431.291 174.208C433.309 174.189 435.3 174.669 437.087 175.607Z" fill="#30242A"/>
<path d="M465.488 199.779V199.827C462.655 200.996 460.362 203.183 459.063 205.958C457.763 208.733 457.551 211.894 458.467 214.818C459.383 217.742 461.362 220.217 464.013 221.753C466.664 223.29 469.795 223.778 472.788 223.12V223.168C456.916 228.138 442.412 226.933 440.388 220.47C438.364 214.007 449.616 204.749 465.488 199.779Z" fill="#4756DF"/>
<path d="M461.711 220.036C463.103 219.478 464.233 218.415 464.874 217.059C465.515 215.704 465.621 214.156 465.169 212.726C464.717 211.296 463.742 210.09 462.438 209.349C461.134 208.608 459.599 208.386 458.139 208.73C458.539 206.755 459.42 204.909 460.704 203.357C461.988 201.804 463.635 200.591 465.5 199.827L472.8 223.12C470.84 223.553 468.804 223.498 466.871 222.96C464.937 222.423 463.166 221.418 461.711 220.036Z" fill="#FFB7D5"/>
<path d="M465.144 212.748C465.591 214.172 465.486 215.712 464.85 217.062C464.214 218.412 463.094 219.474 461.711 220.036C460.207 218.608 459.091 216.821 458.466 214.844C457.841 212.867 457.729 210.763 458.139 208.73C459.598 208.396 461.129 208.624 462.427 209.369C463.726 210.113 464.696 211.32 465.144 212.748Z" fill="#30242A"/>
</svg>
