<svg width="487" height="487" viewBox="0 0 487 487" fill="none" xmlns="http://www.w3.org/2000/svg">
<path d="M38.8075 113.236L113.236 38.8074" stroke="#FF7B1C" stroke-width="2" stroke-miterlimit="10"/>
<path d="M22.1963 143.964L143.964 22.1963" stroke="#FF7B1C" stroke-width="2" stroke-miterlimit="10"/>
<path d="M13.187 167.091L167.091 13.1869" stroke="#FF7B1C" stroke-width="2" stroke-miterlimit="10"/>
<path d="M7.57605 186.839L186.839 7.57605" stroke="#FF7B1C" stroke-width="2" stroke-miterlimit="10"/>
<path d="M4.03662 204.476L204.476 4.03662" stroke="#FF7B1C" stroke-width="2" stroke-miterlimit="10"/>
<path d="M1.98535 220.665L220.665 1.98535" stroke="#FF7B1C" stroke-width="2" stroke-miterlimit="10"/>
<path d="M1.04028 235.727L235.727 1.04028" stroke="#FF7B1C" stroke-width="2" stroke-miterlimit="10"/>
<path d="M249.885 1L1 249.885" stroke="#FF7B1C" stroke-width="2" stroke-miterlimit="10"/>
<path d="M1.72424 263.299L263.299 1.724" stroke="#FF7B1C" stroke-width="2" stroke-miterlimit="10"/>
<path d="M3.09155 276.028L276.028 3.09143" stroke="#FF7B1C" stroke-width="2" stroke-miterlimit="10"/>
<path d="M5.04224 288.215L288.215 5.04224" stroke="#FF7B1C" stroke-width="2" stroke-miterlimit="10"/>
<path d="M7.51575 299.859L299.859 7.51575" stroke="#FF7B1C" stroke-width="2" stroke-miterlimit="10"/>
<path d="M10.4518 311.04L311.04 10.4519" stroke="#FF7B1C" stroke-width="2" stroke-miterlimit="10"/>
<path d="M13.8301 321.779L321.779 13.8303" stroke="#FF7B1C" stroke-width="2" stroke-miterlimit="10"/>
<path d="M17.6312 332.116L332.116 17.6111" stroke="#FF7B1C" stroke-width="2" stroke-miterlimit="10"/>
<path d="M21.7942 342.051L342.051 21.7941" stroke="#FF7B1C" stroke-width="2" stroke-miterlimit="10"/>
<path d="M26.3391 351.643L351.643 26.3188" stroke="#FF7B1C" stroke-width="2" stroke-miterlimit="10"/>
<path d="M31.2057 360.894L360.894 31.2057" stroke="#FF7B1C" stroke-width="2" stroke-miterlimit="10"/>
<path d="M36.3943 369.823L369.823 36.3942" stroke="#FF7B1C" stroke-width="2" stroke-miterlimit="10"/>
<path d="M41.9045 378.43L378.43 41.9043" stroke="#FF7B1C" stroke-width="2" stroke-miterlimit="10"/>
<path d="M47.7363 386.715L386.736 47.7363" stroke="#FF7B1C" stroke-width="2" stroke-miterlimit="10"/>
<path d="M53.8499 394.719L394.719 53.8499" stroke="#FF7B1C" stroke-width="2" stroke-miterlimit="10"/>
<path d="M60.265 402.442L402.442 60.265" stroke="#FF7B1C" stroke-width="2" stroke-miterlimit="10"/>
<path d="M66.9819 409.842L409.842 66.9819" stroke="#FF7B1C" stroke-width="2" stroke-miterlimit="10"/>
<path d="M416.961 73.9802L73.9803 416.961" stroke="#FF7B1C" stroke-width="2" stroke-miterlimit="10"/>
<path d="M81.26 423.799L423.799 81.2603" stroke="#FF7B1C" stroke-width="2" stroke-miterlimit="10"/>
<path d="M88.8417 430.355L430.355 88.8418" stroke="#FF7B1C" stroke-width="2" stroke-miterlimit="10"/>
<path d="M96.7252 436.589L436.589 96.7048" stroke="#FF7B1C" stroke-width="2" stroke-miterlimit="10"/>
<path d="M104.89 442.542L442.542 104.89" stroke="#FF7B1C" stroke-width="2" stroke-miterlimit="10"/>
<path d="M113.356 448.193L448.193 113.356" stroke="#FF7B1C" stroke-width="2" stroke-miterlimit="10"/>
<path d="M122.144 453.542L453.542 122.124" stroke="#FF7B1C" stroke-width="2" stroke-miterlimit="10"/>
<path d="M131.254 458.549L458.549 131.254" stroke="#FF7B1C" stroke-width="2" stroke-miterlimit="10"/>
<path d="M140.686 463.215L463.215 140.686" stroke="#FF7B1C" stroke-width="2" stroke-miterlimit="10"/>
<path d="M150.48 467.539L467.559 150.48" stroke="#FF7B1C" stroke-width="2" stroke-miterlimit="10"/>
<path d="M160.655 471.5L471.52 160.635" stroke="#FF7B1C" stroke-width="2" stroke-miterlimit="10"/>
<path d="M171.193 475.08L475.08 171.193" stroke="#FF7B1C" stroke-width="2" stroke-miterlimit="10"/>
<path d="M182.194 478.197L478.218 182.194" stroke="#FF7B1C" stroke-width="2" stroke-miterlimit="10"/>
<path d="M193.637 480.892L480.892 193.616" stroke="#FF7B1C" stroke-width="2" stroke-miterlimit="10"/>
<path d="M205.562 483.064L483.064 205.562" stroke="#FF7B1C" stroke-width="2" stroke-miterlimit="10"/>
<path d="M218.05 484.693L484.713 218.05" stroke="#FF7B1C" stroke-width="2" stroke-miterlimit="10"/>
<path d="M231.162 485.718L485.718 231.162" stroke="#FF7B1C" stroke-width="2" stroke-miterlimit="10"/>
<path d="M244.998 486L486 244.998" stroke="#FF7B1C" stroke-width="2" stroke-miterlimit="10"/>
<path d="M259.659 485.477L485.477 259.638" stroke="#FF7B1C" stroke-width="2" stroke-miterlimit="10"/>
<path d="M275.304 483.949L483.949 275.304" stroke="#FF7B1C" stroke-width="2" stroke-miterlimit="10"/>
<path d="M292.258 481.113L481.113 292.237" stroke="#FF7B1C" stroke-width="2" stroke-miterlimit="10"/>
<path d="M311 476.488L476.488 311" stroke="#FF7B1C" stroke-width="2" stroke-miterlimit="10"/>
<path d="M332.418 469.188L469.208 332.398" stroke="#FF7B1C" stroke-width="2" stroke-miterlimit="10"/>
<path d="M358.863 456.86L456.88 358.863" stroke="#FF7B1C" stroke-width="2" stroke-miterlimit="10"/>
</svg>
