<svg width="969" height="15" viewBox="0 0 969 15" fill="none" xmlns="http://www.w3.org/2000/svg">
<path d="M1 1C9.63 1 9.63 13.8 18.26 13.8C26.89 13.8 26.88 1 35.51 1C44.14 1 44.14 13.8 52.77 13.8C61.4 13.8 61.41 1 70 1C78.59 1 78.67 13.8 87.3 13.8C95.93 13.8 95.93 1 104.57 1C113.21 1 113.21 13.8 121.84 13.8" stroke="#7129CC" stroke-width="2" stroke-linecap="round" stroke-linejoin="round"/>
<path d="M967.74 1C959.11 1 959.11 13.8 950.48 13.8C941.85 13.8 941.86 1 933.23 1C924.6 1 924.6 13.8 915.97 13.8C907.34 13.8 907.33 1 898.74 1C890.15 1 890.07 13.8 881.44 13.8C872.81 13.8 872.81 1 864.17 1C855.53 1 855.53 13.8 846.9 13.8" stroke="#7129CC" stroke-width="2" stroke-linecap="round" stroke-linejoin="round"/>
<path d="M121.84 13.8C130.47 13.8 130.46 1 139.09 1C147.72 1 147.72 13.8 156.35 13.8C164.98 13.8 164.99 1 173.58 1C182.17 1 182.25 13.8 190.88 13.8C199.51 13.8 199.51 1 208.15 1C216.79 1 216.79 13.8 225.42 13.8" stroke="#7129CC" stroke-width="2" stroke-linecap="round" stroke-linejoin="round"/>
<path d="M639.74 13.8C648.37 13.8 648.36 1 656.99 1C665.62 1 665.62 13.8 674.25 13.8C682.88 13.8 682.89 1 691.48 1C700.07 1 700.15 13.8 708.78 13.8C717.41 13.8 717.41 1 726.05 1C734.69 1 734.69 13.8 743.32 13.8" stroke="#7129CC" stroke-width="2" stroke-linecap="round" stroke-linejoin="round"/>
<path d="M329 13.8C337.63 13.8 337.62 1 346.25 1C354.88 1 354.88 13.8 363.51 13.8C372.14 13.8 372.15 1 380.74 1C389.33 1 389.41 13.8 398.04 13.8C406.67 13.8 406.67 1 415.31 1C423.95 1 423.95 13.8 432.58 13.8" stroke="#7129CC" stroke-width="2" stroke-linecap="round" stroke-linejoin="round"/>
<path d="M432.58 13.8C441.21 13.8 441.2 1 449.83 1C458.46 1 458.46 13.8 467.09 13.8C475.72 13.8 475.73 1 484.32 1C492.91 1 492.99 13.8 501.62 13.8C510.25 13.8 510.25 1 518.89 1C527.53 1 527.53 13.8 536.16 13.8" stroke="#7129CC" stroke-width="2" stroke-linecap="round" stroke-linejoin="round"/>
<path d="M536.16 13.8C544.79 13.8 544.78 1 553.41 1C562.04 1 562.04 13.8 570.67 13.8C579.3 13.8 579.31 1 587.9 1C596.49 1 596.57 13.8 605.2 13.8C613.83 13.8 613.83 1 622.47 1C631.11 1 631.11 13.8 639.74 13.8" stroke="#7129CC" stroke-width="2" stroke-linecap="round" stroke-linejoin="round"/>
<path d="M225.42 13.8C234.05 13.8 234.04 1 242.67 1C251.3 1 251.3 13.8 259.93 13.8C268.56 13.8 268.57 1 277.16 1C285.75 1 285.83 13.8 294.46 13.8C303.09 13.8 303.09 1 311.73 1C320.37 1 320.37 13.8 329 13.8" stroke="#7129CC" stroke-width="2" stroke-linecap="round" stroke-linejoin="round"/>
<path d="M743.32 13.8C751.95 13.8 751.94 1 760.57 1C769.2 1 769.2 13.8 777.83 13.8C786.46 13.8 786.47 1 795.06 1C803.65 1 803.73 13.8 812.36 13.8C820.99 13.8 820.99 1 829.63 1C838.27 1 838.27 13.8 846.9 13.8" stroke="#7129CC" stroke-width="2" stroke-linecap="round" stroke-linejoin="round"/>
</svg>
