<svg width="658" height="15" viewBox="0 0 658 15" fill="none" xmlns="http://www.w3.org/2000/svg">
<path d="M1 1C9.63 1 9.63 13.8 18.26 13.8C26.89 13.8 26.88 1 35.51 1C44.14 1 44.14 13.8 52.77 13.8C61.4 13.8 61.41 1 70 1C78.59 1 78.67 13.8 87.3 13.8C95.93 13.8 95.93 1 104.57 1C113.21 1 113.21 13.8 121.84 13.8" stroke="#7129CC" stroke-width="2" stroke-linecap="round" stroke-linejoin="round"/>
<path d="M656.84 1C648.21 1 648.21 13.8 639.58 13.8C630.95 13.8 630.96 1 622.33 1C613.7 1 613.7 13.8 605.07 13.8C596.44 13.8 596.43 1 587.84 1C579.25 1 579.17 13.8 570.54 13.8C561.91 13.8 561.91 1 553.27 1C544.63 1 544.63 13.8 536 13.8" stroke="#7129CC" stroke-width="2" stroke-linecap="round" stroke-linejoin="round"/>
<path d="M121.84 13.8C130.47 13.8 130.46 1 139.09 1C147.72 1 147.72 13.8 156.35 13.8C164.98 13.8 164.99 1 173.58 1C182.17 1 182.25 13.8 190.88 13.8C199.51 13.8 199.51 1 208.15 1C216.79 1 216.79 13.8 225.42 13.8" stroke="#7129CC" stroke-width="2" stroke-linecap="round" stroke-linejoin="round"/>
<path d="M329 13.8C337.63 13.8 337.62 1 346.25 1C354.88 1 354.88 13.8 363.51 13.8C372.14 13.8 372.15 1 380.74 1C389.33 1 389.41 13.8 398.04 13.8C406.67 13.8 406.67 1 415.31 1C423.95 1 423.95 13.8 432.58 13.8" stroke="#7129CC" stroke-width="2" stroke-linecap="round" stroke-linejoin="round"/>
<path d="M432.58 13.8C441.21 13.8 441.2 1 449.83 1C458.46 1 458.46 13.8 467.09 13.8C475.72 13.8 475.73 1 484.32 1C492.91 1 492.99 13.8 501.62 13.8C510.25 13.8 510.25 1 518.89 1C527.53 1 527.53 13.8 536.16 13.8" stroke="#7129CC" stroke-width="2" stroke-linecap="round" stroke-linejoin="round"/>
<path d="M225.42 13.8C234.05 13.8 234.04 1 242.67 1C251.3 1 251.3 13.8 259.93 13.8C268.56 13.8 268.57 1 277.16 1C285.75 1 285.83 13.8 294.46 13.8C303.09 13.8 303.09 1 311.73 1C320.37 1 320.37 13.8 329 13.8" stroke="#7129CC" stroke-width="2" stroke-linecap="round" stroke-linejoin="round"/>
</svg>
